<svg version="1.1" id="Layer_1" xmlns="http://www.w3.org/2000/svg" x="0" y="0" viewBox="0 0 118.2 40.7" style="enable-background:new 0 0 118.2 40.7" xml:space="preserve">
  <style>
    .st0{fill:#2463eb}
  </style>
  <path class="st0" d="M17.7 13h-.5c-.8 0-1.5 0-2.3.1l-6.6.5c-.4 0-.7.4-.7.7 0 .4.3.7.7.7l6.6.3c.2 0 .4.2.4.4l1.2 7.7c.1.4.4.7.8.7s.7-.3.8-.7l1.2-7.7c0-.2.2-.4.4-.4l6.6-.3c.4 0 .7-.3.7-.7 0-.4-.3-.7-.7-.7l-6.3-.5c-.8 0-1.5-.1-2.3-.1z"/>
  <circle class="st0" cx="17.4" cy="9.5" r="2.1"/>
  <circle class="st0" cx="23.1" cy="19.4" r="2.1"/>
  <circle class="st0" cx="11.8" cy="19.4" r="2.1"/>
  <path class="st0" d="M45.5 11.2c-.3-1.3-1.3-2.1-2.6-2.1-1.8 0-3.1 1.4-3.1 3.8 0 2.5 1.3 3.8 3.1 3.8 1.3 0 2.4-.7 2.7-2h1.6c-.3 2-2 3.4-4.2 3.4-2.7 0-4.6-2-4.6-5.2s1.9-5.2 4.6-5.2c2.2 0 3.9 1.3 4.2 3.5h-1.7zM48.1 14.3c0-2.4 1.4-4 3.6-4s3.6 1.6 3.6 4-1.4 3.9-3.6 3.9-3.6-1.6-3.6-3.9zm5.6-.1c0-1.5-.7-2.7-2.1-2.7-1.4 0-2.1 1.2-2.1 2.7 0 1.5.7 2.7 2.1 2.7 1.5.1 2.1-1.2 2.1-2.7zM58 18h-1.5v-7.7H58v1.2h.1c.4-.8 1.1-1.3 2.3-1.3 1.6 0 2.6 1 2.6 2.9V18h-1.5v-4.7c0-1.1-.6-1.8-1.6-1.8s-1.8.7-1.8 1.9V18zM69 12.5c-.2-.5-.6-1-1.5-1-.8 0-1.5.4-1.5 1 0 .5.4.8 1.2 1l1.2.3c1.4.3 2.1 1 2.1 2.1 0 1.4-1.3 2.4-3.1 2.4-1.7 0-2.8-.8-3.1-2.1l1.4-.2c.2.8.8 1.1 1.6 1.1 1 0 1.6-.5 1.6-1.1 0-.5-.3-.8-1.1-1l-1.3-.3c-1.4-.3-2.1-1-2.1-2.1 0-1.4 1.2-2.3 3-2.3 1.7 0 2.6.8 2.9 2l-1.3.2zM76.6 10.4h1.5V18h-1.5v-1.3h-.1c-.4.8-1.1 1.4-2.3 1.4-1.5 0-2.5-1-2.5-2.9v-4.9h1.5V15c0 1 .6 1.7 1.6 1.7.8 0 1.8-.6 1.8-1.9v-4.4zM81.2 18h-1.5V7.8h1.5V18zM86.4 11.6h-1.6v4.2c0 .9.4 1 .9 1 .2 0 .4 0 .5-.1l.3 1.2c-.2.1-.5.2-1 .2-1.2 0-2.2-.6-2.2-2v-4.5h-1.1v-1.2h1.1V8.6h1.5v1.8h1.6v1.2zM87.3 14.3c0-2.4 1.4-4 3.6-4s3.6 1.6 3.6 4-1.4 3.9-3.6 3.9-3.6-1.6-3.6-3.9zm5.6-.1c0-1.5-.7-2.7-2.1-2.7-1.4 0-2.1 1.2-2.1 2.7 0 1.5.7 2.7 2.1 2.7 1.5.1 2.1-1.2 2.1-2.7zM95.8 10.4h1.4v1.2h.1c.3-.8 1-1.3 1.9-1.3h.6v1.4c-.1 0-.5-.1-.8-.1-1.1 0-1.8.7-1.8 1.7V18h-1.5v-7.6zM100.6 8.3c0-.5.4-.9.9-.9s.9.4.9.9-.4.9-.9.9-.9-.4-.9-.9zm.2 2.1h1.5V18h-1.5v-7.6zM103.6 15.9c0-1.7 1.5-2.1 2.9-2.3 1.4-.2 1.9-.1 1.9-.7 0-.9-.5-1.4-1.5-1.4s-1.6.5-1.8 1.1l-1.4-.3c.5-1.4 1.8-2 3.2-2 1.2 0 3 .4 3 2.7v5h-1.5v-1h-.1c-.3.6-1 1.2-2.3 1.2-1.3 0-2.4-.8-2.4-2.3zm4.9-.6v-1c-.2.2-1.4.3-1.8.4-.9.1-1.6.4-1.6 1.2 0 .7.6 1.1 1.4 1.1 1.2 0 2-.8 2-1.7zM40.6 22.4l3.2 7.9h.2l3.2-7.9h1.9v10.2h-1.5v-7.4h-.1l-3 7.4h-1.2l-3-7.4h-.1v7.4h-1.5V22.4h1.9zM50.7 22.9c0-.5.4-.9.9-.9s.9.4.9.9-.4.9-.9.9-.9-.4-.9-.9zm.2 2.1h1.5v7.7h-1.5V25zM54 33.9l1.3-.5c.3.4.7 1.1 2 1.1 1.1 0 2-.5 2-1.7v-1.5h-.1c-.3.5-.8 1.3-2.2 1.3-1.8 0-3.2-1.3-3.2-3.7 0-2.4 1.4-3.9 3.2-3.9 1.4 0 2 .9 2.2 1.3h.1V25h1.5v7.8c0 2-1.5 2.9-3.5 2.9-1.9-.1-2.9-.9-3.3-1.8zm5.2-5.2c0-1.5-.7-2.6-2-2.6s-2 1.1-2 2.6.7 2.5 2 2.5c1.3.1 2-.9 2-2.5zM62.3 25h1.4v1.2h.1c.3-.8 1-1.3 1.9-1.3h.6v1.4c-.1 0-.5-.1-.8-.1-1.1 0-1.8.7-1.8 1.7v4.7h-1.5V25zM66.9 30.5c0-1.7 1.5-2.1 2.9-2.3 1.4-.2 1.9-.1 1.9-.7 0-.9-.5-1.4-1.5-1.4s-1.6.5-1.8 1.1l-1.4-.3c.5-1.4 1.8-2 3.2-2 1.2 0 3 .4 3 2.7v5.1h-1.5v-1h-.1c-.3.6-1 1.2-2.3 1.2-1.2-.1-2.4-.9-2.4-2.4zm4.9-.6v-1c-.2.2-1.4.3-1.8.4-.9.1-1.6.4-1.6 1.2 0 .7.6 1.1 1.4 1.1 1.3 0 2-.8 2-1.7zM78.5 26.2h-1.6v4.2c0 .9.4 1 .9 1 .2 0 .4 0 .5-.1l.3 1.2c-.2.1-.5.2-1 .2-1.2 0-2.2-.6-2.2-2v-4.5h-1.1V25h1.1v-1.8h1.5V25h1.6v1.2zM79.4 28.8c0-2.4 1.4-4 3.6-4s3.6 1.6 3.6 4-1.4 3.9-3.6 3.9c-2.2.1-3.6-1.5-3.6-3.9zm5.6 0c0-1.5-.7-2.7-2.1-2.7-1.4 0-2.1 1.2-2.1 2.7 0 1.5.7 2.7 2.1 2.7 1.4 0 2.1-1.2 2.1-2.7zm-1.5-7.2h1.6l-1.5 2.3h-1.2l1.1-2.3zM87.8 25h1.4v1.2h.1c.3-.8 1-1.3 1.9-1.3h.6v1.4c-.1 0-.5-.1-.8-.1-1.1 0-1.8.7-1.8 1.7v4.7h-1.5V25zM92.7 22.9c0-.5.4-.9.9-.9s.9.4.9.9-.4.9-.9.9-.9-.4-.9-.9zm.2 2.1h1.5v7.7h-1.5V25zM95.6 30.5c0-1.7 1.5-2.1 2.9-2.3 1.4-.2 1.9-.1 1.9-.7 0-.9-.5-1.4-1.5-1.4s-1.6.5-1.8 1.1l-1.4-.3c.5-1.4 1.8-2 3.2-2 1.2 0 3 .4 3 2.7v5.1h-1.5v-1h-.1c-.3.6-1 1.2-2.3 1.2-1.2-.1-2.4-.9-2.4-2.4zm4.9-.6v-1c-.2.2-1.4.3-1.8.4-.9.1-1.6.4-1.6 1.2 0 .7.6 1.1 1.4 1.1 1.3 0 2-.8 2-1.7z"/>
</svg>
