<svg version="1.1" id="Layer_1" xmlns="http://www.w3.org/2000/svg" x="0" y="0" viewBox="0 0 30 25" style="enable-background:new 0 0 30 25" xml:space="preserve">
  <style>
    .st0{fill:#0063a6}.st1{fill:#fff}.st2{fill:#231f20}
  </style>
  <path d="m26.39 9.8-8.23-.69c-.94-.07-1.88-.11-2.83-.11h-.66c-.95 0-1.89.04-2.84.12l-8.22.68c-.48.04-.86.44-.86.93 0 .5.39.91.89.93l8.29.38c.26.01.48.21.52.46l1.54 9.63c.08.5.51.87 1.01.87s.93-.37 1.01-.86l1.54-9.63c.04-.26.26-.45.52-.46l8.29-.38c.5-.02.89-.43.89-.93 0-.49-.37-.9-.86-.94z"/>
  <circle cx="15" cy="4.62" r="2.62"/>
  <path d="M22 14.25c-1.45 0-2.63 1.18-2.63 2.62a2.625 2.625 0 0 0 5.25 0c0-1.44-1.17-2.62-2.62-2.62z"/>
  <circle cx="8" cy="16.87" r="2.62"/>
</svg>
